<?xml version="1.0" encoding="utf-8"?>
<!-- Generator: Adobe Illustrator 16.0.0, SVG Export Plug-In . SVG Version: 6.00 Build 0)  -->
<!DOCTYPE svg PUBLIC "-//W3C//DTD SVG 1.1//EN" "http://www.w3.org/Graphics/SVG/1.1/DTD/svg11.dtd">
<svg version="1.1" id="Layer_1" xmlns="http://www.w3.org/2000/svg" xmlns:xlink="http://www.w3.org/1999/xlink" x="0px" y="0px"
	 width="1001px" height="268.168px" viewBox="0 0 1001 268.168" enable-background="new 0 0 1001 268.168" xml:space="preserve">
<linearGradient id="Footer_1_" gradientUnits="userSpaceOnUse" x1="-867.9141" y1="-147.166" x2="-255.2903" y2="465.4578" gradientTransform="matrix(-1 0 0 1 -58 0)">
	<stop  offset="0" style="stop-color:#4361EE"/>
	<stop  offset="1" style="stop-color:#4389EE"/>
</linearGradient>
<path id="Footer" fill="url(#Footer_1_)" d="M1001,46.711c0.046-13.328-57.141-32.15-74.534-36.904
	C816.679-20.199,690.58,24.229,623.004,67.955c-15.178,9.82-28.576,22.028-50.471,28.312
	c-64.938,18.635-111.727-24.181-154.5-42.073C364.826,31.938,289.236,17.1,228.371,40.771
	c-43.418,16.885-71.383,62.766-137.932,57.52C66.813,96.43,0,72.386,0,57.327c0,1.645,0,210.841,0,210.841h1000
	C1000,268.168,1000.998,47.354,1001,46.711z"/>
</svg>
