<?xml version="1.0" encoding="utf-8"?>
<!-- Generator: Adobe Illustrator 16.0.0, SVG Export Plug-In . SVG Version: 6.00 Build 0)  -->
<!DOCTYPE svg PUBLIC "-//W3C//DTD SVG 1.1//EN" "http://www.w3.org/Graphics/SVG/1.1/DTD/svg11.dtd">
<svg version="1.1" id="Layer_1" xmlns="http://www.w3.org/2000/svg" xmlns:xlink="http://www.w3.org/1999/xlink" x="0px" y="0px"
	 width="1001px" height="696.5px" viewBox="0 0 1001 696.5" enable-background="new 0 0 1001 696.5" xml:space="preserve">
<g id="Header_BG_1_">
	<linearGradient id="SVGID_1_" gradientUnits="userSpaceOnUse" x1="702.7803" y1="413.5469" x2="702.7803" y2="696.5">
		<stop  offset="0" style="stop-color:#F72585;stop-opacity:0.2"/>
		<stop  offset="0.2575" style="stop-color:#F42486;stop-opacity:0.2258"/>
		<stop  offset="0.4266" style="stop-color:#EC2389;stop-opacity:0.2427"/>
		<stop  offset="0.5702" style="stop-color:#DD1F8F;stop-opacity:0.257"/>
		<stop  offset="0.6996" style="stop-color:#C71B97;stop-opacity:0.27"/>
		<stop  offset="0.8195" style="stop-color:#AC15A1;stop-opacity:0.2819"/>
		<stop  offset="0.9307" style="stop-color:#8B0EAE;stop-opacity:0.2931"/>
		<stop  offset="1" style="stop-color:#7209B7;stop-opacity:0.3"/>
	</linearGradient>
	<path fill="url(#SVGID_1_)" d="M1001,413.547V696.5c0-6.693-79.88-27.106-89.04-29.788c-34.55-10.129-69.58-19.255-104.92-27.596
		c-131.89-31.125-267.01-53.777-402.479-73.312c0,0,276.903-51.548,366.517-75.586C830.202,474.359,1001,413.547,1001,413.547z"/>
	<linearGradient id="SVGID_2_" gradientUnits="userSpaceOnUse" x1="79.7607" y1="654.1279" x2="1053.936" y2="91.6875">
		<stop  offset="0" style="stop-color:#4CC9F0;stop-opacity:0.2"/>
		<stop  offset="1" style="stop-color:#7209B7;stop-opacity:0.4"/>
	</linearGradient>
	<path fill="url(#SVGID_2_)" d="M1001,0v413.547c0,0-167.196,60.045-229.923,76.672c-86.193,22.848-366.517,75.586-366.517,75.586
		c-6.66-0.964-13.311-1.912-19.971-2.861C257.45,544.887,129.38,529.418,1,517.711c-0.32-36.278-0.66-72.55-1-108.828
		c28.04-8.434,56.109-16.806,84.07-25.404c140.189-43.096,278.18-90.568,413.58-142.098c84.479-32.151,168.949-64.707,248.38-104.04
		c39.02-19.317,76.8-40.189,112.06-63.509c16.38-10.836,32.391-22.077,47.311-34.133C910.93,35.222,941.73,0,946,0
		C946.03,0,1001,0,1001,0z"/>
</g>
</svg>
