<?xml version="1.0" encoding="utf-8"?>
<!-- Generator: Adobe Illustrator 16.0.0, SVG Export Plug-In . SVG Version: 6.00 Build 0)  -->
<!DOCTYPE svg PUBLIC "-//W3C//DTD SVG 1.1//EN" "http://www.w3.org/Graphics/SVG/1.1/DTD/svg11.dtd">
<svg version="1.1" id="Layer_1" xmlns="http://www.w3.org/2000/svg" xmlns:xlink="http://www.w3.org/1999/xlink" x="0px" y="0px"
	 width="1262px" height="460.214px" viewBox="0 0 1262 460.214" enable-background="new 0 0 1262 460.214" xml:space="preserve">
<g id="Header_BG_1_" display="none">
	<linearGradient id="SVGID_1_" gradientUnits="userSpaceOnUse" x1="886.0146" y1="344.5298" x2="886.0146" y2="699.9976">
		<stop  offset="0" style="stop-color:#F72585;stop-opacity:0.2"/>
		<stop  offset="0.2575" style="stop-color:#F42486;stop-opacity:0.2258"/>
		<stop  offset="0.4266" style="stop-color:#EC2389;stop-opacity:0.2427"/>
		<stop  offset="0.5702" style="stop-color:#DD1F8F;stop-opacity:0.257"/>
		<stop  offset="0.6996" style="stop-color:#C71B97;stop-opacity:0.27"/>
		<stop  offset="0.8195" style="stop-color:#AC15A1;stop-opacity:0.2819"/>
		<stop  offset="0.9307" style="stop-color:#8B0EAE;stop-opacity:0.2931"/>
		<stop  offset="1" style="stop-color:#7209B7;stop-opacity:0.3"/>
	</linearGradient>
	<path display="inline" fill="url(#SVGID_1_)" d="M1262,344.53v355.468c0-8.408-100.71-34.053-112.259-37.421
		c-43.559-12.725-87.724-24.189-132.279-34.668c-166.282-39.102-336.637-67.559-507.433-92.1c0,0,349.11-64.759,462.092-94.957
		C1046.664,420.927,1262,344.53,1262,344.53z"/>
	<linearGradient id="SVGID_2_" gradientUnits="userSpaceOnUse" x1="100.7402" y1="647.7383" x2="1327.9409" y2="-60.7864">
		<stop  offset="0" style="stop-color:#4CC9F0;stop-opacity:0.2"/>
		<stop  offset="1" style="stop-color:#7209B7;stop-opacity:0.4"/>
	</linearGradient>
	<path display="inline" fill="url(#SVGID_2_)" d="M1262-175v519.53c0,0-210.795,75.434-289.879,96.322
		c-108.67,28.703-462.092,94.957-462.092,94.957c-8.396-1.211-16.781-2.402-25.178-3.594
		c-160.293-22.686-321.76-42.119-483.617-56.826c-0.403-45.576-0.832-91.142-1.261-136.718
		c35.353-10.596,70.741-21.113,105.993-31.914c176.746-54.141,350.719-113.779,521.428-178.515
		C733.903,87.851,840.399,46.952,940.543-2.461c49.194-24.268,96.826-50.488,141.281-79.785
		c20.65-13.613,40.837-27.734,59.647-42.881c6.971-5.625,45.804-49.873,51.187-49.873C1192.696-175,1262-175,1262-175z"/>
</g>
<g id="Header_BG_2_">
	
		<linearGradient id="SVGID_3_" gradientUnits="userSpaceOnUse" x1="630.9727" y1="64.998" x2="630.9727" y2="524.998" gradientTransform="matrix(-1 0 0 -1 1261.9727 524.998)">
		<stop  offset="0" style="stop-color:#F72585;stop-opacity:0.2"/>
		<stop  offset="0.2575" style="stop-color:#F42486;stop-opacity:0.2258"/>
		<stop  offset="0.4266" style="stop-color:#EC2389;stop-opacity:0.2427"/>
		<stop  offset="0.5702" style="stop-color:#DD1F8F;stop-opacity:0.257"/>
		<stop  offset="0.6996" style="stop-color:#C71B97;stop-opacity:0.27"/>
		<stop  offset="0.8195" style="stop-color:#AC15A1;stop-opacity:0.2819"/>
		<stop  offset="0.9307" style="stop-color:#8B0EAE;stop-opacity:0.2931"/>
		<stop  offset="1" style="stop-color:#7209B7;stop-opacity:0.3"/>
	</linearGradient>
	<path fill="url(#SVGID_3_)" d="M0,460V0c0,10.886,169.002,44.087,188.385,48.448c73.105,16.475,147.209,31.318,221.988,44.884
		C689.449,143.956,975,60.798,1262,92.571V460c0,0-601.229,0-696.731,0C423.406,460,0,460,0,460z"/>
</g>
</svg>
